<svg id="SvgjsSvg1001" width="256" height="256" xmlns="http://www.w3.org/2000/svg" version="1.1" xmlns:xlink="http://www.w3.org/1999/xlink" xmlns:svgjs="http://svgjs.com/svgjs"><defs id="SvgjsDefs1002"></defs><g id="SvgjsG1008"><svg xmlns="http://www.w3.org/2000/svg" viewBox="0 0 512 512" width="256" height="256"><defs><linearGradient id="a" x1="322.5" x2="379" y1="261.49" y2="261.49" gradientUnits="userSpaceOnUse"><stop offset="0" stop-color="#cacfdd" class="stopColorcacfdd svgShape"></stop><stop offset="1" stop-color="#eef0f1" class="stopColoreef0f1 svgShape"></stop></linearGradient></defs><g style="isolation:isolate" fill="#000000" class="color000 svgShape"><path fill="#a9afc4" d="M147.86,36v74.6l103.78,74.31L355.42,110.6V36Z" class="colora9afc4 svgShape"></path><path fill="#a9afc4" d="M355.42,36v74.6L251.64,184.9c-50.9-36.51-27.75-19.93-103.78-74.3V36Z" class="colora9afc4 svgShape"></path><rect width="256.95" height="6" x="123.17" y="33" fill="#5e6175" class="color5e6175 svgShape"></rect><polygon fill="#f5f5f5" points="292.05 36 292.05 155.97 251.64 184.9 211.23 155.91 211.23 36 292.05 36" class="colorf5f5f5 svgShape"></polygon><path fill="#5e6175" d="M251.63,188.59c-53-38-29.24-21-106.77-76.45V33H358.42v79.14ZM150.86,109.05c74.55,53.32,52,37.14,100.78,72.16l100.78-72.16V39H150.86Z" class="color5e6175 svgShape"></path><circle cx="251.64" cy="184.91" r="18.14" fill="#a9afc4" class="colora9afc4 svgShape"></circle><path fill="#5e6175" d="M251.64,206.05a21.15,21.15,0,1,1,21.14-21.14A21.16,21.16,0,0,1,251.64,206.05Zm0-36.29a15.15,15.15,0,1,0,15.14,15.15A15.16,15.16,0,0,0,251.64,169.76Z" class="color5e6175 svgShape"></path><path fill="#e1830e" d="M94.58 251.62A28.58 28.58 0 01123.16 223a28.59 28.59 0 01-28.58-28.58A28.58 28.58 0 0166 223a28.57 28.57 0 0128.58 28.58M142.47 166.76a12.13 12.13 0 0112.14-12.13 12.15 12.15 0 01-12.14-12.14 12.14 12.14 0 01-12.13 12.14 12.13 12.13 0 0112.13 12.13M392.25 437.46a12.13 12.13 0 0112.14-12.13 12.15 12.15 0 01-12.14-12.14 12.14 12.14 0 01-12.13 12.14 12.13 12.13 0 0112.13 12.13" class="colore1830e svgShape"></path><path fill="#5e6175" d="M415.33 124.22a14.34 14.34 0 01-14.24-13h0a14.33 14.33 0 1114.24 13zm-8.26-13.56a8.33 8.33 0 107.51-9.07 8.34 8.34 0 00-7.51 9.07zM364.48 162.79a10.27 10.27 0 01-10.21-9.3h0a10.26 10.26 0 1110.21 9.3zm-4.23-9.86a4.26 4.26 0 103.84-4.65 4.28 4.28 0 00-3.84 4.65z" class="color5e6175 svgShape"></path><path fill="#a9afc4" d="M256.39,478.93l-.17-6c1.94-.06,3.92-.15,5.89-.28l.38,6C260.46,478.78,258.4,478.88,256.39,478.93Zm-10.19,0c-2-.06-4.06-.16-6.1-.3l.41-6c2,.13,3.94.23,5.88.3Zm26.43-1.22-.75-5.95c1.94-.25,3.9-.53,5.83-.85l1,5.93C276.67,477.14,274.64,477.44,272.63,477.69ZM230,477.6c-2-.25-4-.56-6-.89l1-5.92c1.93.32,3.89.61,5.82.86Zm58.7-2.73L287.35,469c1.92-.44,3.84-.92,5.71-1.41l1.55,5.79C292.67,473.92,290.67,474.41,288.68,474.87ZM214,474.72c-2-.45-4-1-5.92-1.48l1.56-5.79c1.89.51,3.81,1,5.71,1.43Zm90.41-4.24-1.89-5.69c1.85-.62,3.71-1.28,5.55-2l2.1,5.61C308.22,469.16,306.28,469.84,304.36,470.48Zm-106.07-.2c-1.92-.65-3.85-1.34-5.76-2.06l2.13-5.61c1.84.69,3.7,1.36,5.54,2Zm121.26-5.7-2.45-5.48c1.78-.8,3.57-1.64,5.33-2.5l2.65,5.38C323.25,462.88,321.39,463.75,319.55,464.58Zm-136.4-.25c-1.85-.84-3.7-1.71-5.51-2.61l2.67-5.38c1.74.87,3.52,1.71,5.3,2.52Zm150.92-7.12-3-5.21c1.7-1,3.4-2,5.06-3l3.17,5.1C337.6,455.16,335.83,456.21,334.07,457.21Zm-165.4-.29c-1.76-1-3.52-2.07-5.23-3.13l3.18-5.09c1.64,1,3.34,2,5,3ZM155,448.13c-1.64-1.17-3.29-2.39-4.9-3.63l3.66-4.75c1.55,1.19,3.14,2.37,4.72,3.5ZM142.2,438.06c-1.53-1.34-3-2.72-4.53-4.1l4.11-4.38c1.42,1.34,2.89,2.66,4.37,3.95Zm-11.74-11.28c-1.4-1.48-2.78-3-4.11-4.51l4.51-4c1.28,1.45,2.61,2.92,4,4.35Zm-10.6-12.36c-1.24-1.6-2.47-3.25-3.66-4.9l4.88-3.5c1.14,1.59,2.33,3.18,3.52,4.72Zm-9.35-13.35c-1.09-1.72-2.15-3.49-3.16-5.23l5.19-3c1,1.68,2,3.38,3,5.05Zm-8-14.19c-.9-1.81-1.79-3.67-2.64-5.53l5.46-2.48c.82,1.78,1.67,3.57,2.55,5.32ZM95.92,372c-.73-1.92-1.43-3.86-2.08-5.76l5.67-1.94c.63,1.83,1.31,3.7,2,5.56Zm-5.08-15.49c-.53-2-1-3.95-1.5-5.92l5.84-1.37c.44,1.9.93,3.82,1.45,5.71Zm-3.52-15.89c-.34-2-.65-4-.92-6l5.94-.8c.26,1.95.56,3.91.89,5.82Zm-2-16.17c-.15-2-.26-4.07-.33-6.09l6-.22c.07,2,.17,3.93.31,5.88Z" class="colora9afc4 svgShape"></path><circle cx="251.64" cy="312.27" r="127.37" fill="#f5f5f5" transform="rotate(-45 251.64 312.277)" class="colorf5f5f5 svgShape"></circle><circle cx="251.64" cy="312.28" r="127.38" fill="#f5f5f5" class="colorf5f5f5 svgShape"></circle><path fill="#f5f5f5" d="M379,312.28A127.38,127.38,0,1,1,251.64,184.9,127.38,127.38,0,0,1,379,312.28Z" class="colorf5f5f5 svgShape"></path><circle cx="251.64" cy="312.28" r="100.91" fill="#e1830e" class="colore1830e svgShape"></circle><path d="M379,311.27c-45.57-8.79-69.55-58.89-49.18-99.55A127.13,127.13,0,0,1,379,311.27Z" style="mix-blend-mode:multiply" fill="url(#a)"></path><polygon fill="#f5f5f5" points="237.58 382.8 237.58 269.99 219.77 269.99 219.77 257.38 235.82 242.79 263.81 242.79 263.81 382.8 237.58 382.8" class="colorf5f5f5 svgShape"></polygon><path fill="#5e6175" d="M251.64,442.65c-71.89,0-130.38-58.48-130.38-130.37S179.75,181.9,251.64,181.9,382,240.39,382,312.28,323.53,442.65,251.64,442.65Zm0-254.75A124.38,124.38,0,1,0,376,312.28,124.53,124.53,0,0,0,251.64,187.9Z" class="color5e6175 svgShape"></path><circle cx="392.25" cy="242.79" r="53.75" fill="#f5f5f5" class="colorf5f5f5 svgShape"></circle><path fill="#5e6175" d="M392.25,299.54A56.75,56.75,0,1,1,449,242.79,56.82,56.82,0,0,1,392.25,299.54Zm0-107.49A50.75,50.75,0,1,0,443,242.79,50.8,50.8,0,0,0,392.25,192.05Z" class="color5e6175 svgShape"></path><polygon fill="#e1830e" points="383.94 272.48 360.77 249.32 368.74 241.34 383.94 256.53 418.14 222.33 426.11 230.31 383.94 272.48" class="colore1830e svgShape"></polygon></g></svg></g></svg>