<svg width="36" height="58" viewBox="0 0 36 58" fill="none" xmlns="http://www.w3.org/2000/svg">
<path d="M20.8251 5.43154C20.8251 6.87207 20.2528 8.2536 19.2342 9.27221C18.2156 10.2908 16.8341 10.8631 15.3935 10.8631C13.953 10.8631 12.5715 10.2908 11.5529 9.27221C10.5343 8.2536 9.962 6.87207 9.962 5.43154C9.962 3.991 10.5343 2.60947 11.5529 1.59086C12.5715 0.572249 13.953 0 15.3935 0C16.8341 0 18.2156 0.572249 19.2342 1.59086C20.2528 2.60947 20.8251 3.991 20.8251 5.43154ZM9.74474 13.5861C9.99922 13.2995 10.3115 13.0701 10.661 12.9128C11.0104 12.7555 11.3893 12.674 11.7725 12.6736H17.0049C19.6917 12.6736 21.7846 15.0019 21.5058 17.6706L19.9488 32.4552C19.8967 32.9425 19.7898 33.4223 19.6301 33.8855L18.4787 37.1662L19.2499 38.0425C19.4146 38.2348 19.5534 38.4478 19.6627 38.6762L26.9048 54.0655C27.0675 54.3895 27.1636 54.7428 27.1876 55.1046C27.2116 55.4663 27.1629 55.8292 27.0444 56.1719C26.9259 56.5145 26.74 56.83 26.4977 57.0996C26.2553 57.3693 25.9614 57.5877 25.6333 57.7419C25.3052 57.8962 24.9495 57.9832 24.5873 57.9978C24.225 58.0124 23.8635 57.9543 23.524 57.827C23.1846 57.6997 22.874 57.5057 22.6108 57.2564C22.3475 57.0072 22.1368 56.7077 21.991 56.3757L14.9083 41.334L8.825 34.378C8.35681 33.846 8.11511 33.1521 8.15149 32.4444L8.65119 22.9826L7.07605 24.7533L5.39589 34.8415C5.27777 35.5522 4.88217 36.1868 4.29613 36.6058C3.71009 37.0248 2.98161 37.1938 2.27095 37.0757C1.56028 36.9576 0.925651 36.562 0.506663 35.9759C0.0876745 35.3899 -0.0813491 34.6614 0.0367746 33.9507L1.84729 23.0877C1.93217 22.5826 2.15813 22.1119 2.49907 21.7298L9.74112 13.5825L9.74474 13.5861Z" fill="#6EA8FF"/>
<path d="M9.05674 42.5291V37.3945L13.4165 42.3734L14.3615 44.2708C14.2633 44.5715 14.1166 44.854 13.927 45.1073L4.87446 56.8756C4.43557 57.447 3.78768 57.8207 3.07329 57.9144C2.3589 58.0081 1.63655 57.8142 1.06514 57.3753C0.493728 56.9364 0.120065 56.2885 0.0263527 55.5741C-0.0673595 54.8597 0.126555 54.1374 0.565437 53.566L9.05674 42.5291ZM24.3375 27.2665L22.5487 25.4777L23.291 18.8041L23.3127 18.5615L27.3827 22.6316H32.597C33.3173 22.6316 34.008 22.9177 34.5174 23.427C35.0267 23.9363 35.3128 24.6271 35.3128 25.3473C35.3128 26.0676 35.0267 26.7584 34.5174 27.2677C34.008 27.777 33.3173 28.0631 32.597 28.0631H26.2566C25.8995 28.0633 25.5458 27.993 25.2159 27.8563C24.886 27.7196 24.5862 27.5192 24.3338 27.2665H24.3375Z" fill="#0085FF"/>
</svg>