<svg width="170" height="26" viewBox="0 0 170 26" fill="none" xmlns="http://www.w3.org/2000/svg">
<path d="M25.55 22.9038C23.1725 23.9888 20.8126 24.7827 18.4705 25.2855C16.1639 25.7618 13.7864 26 11.3378 26C9.27963 26 7.2924 25.8545 5.37615 25.5634C3.4599 25.2987 1.66785 24.915 0 24.4122V21.0382C1.70334 21.541 3.49539 21.9511 5.37615 22.2687C7.2924 22.5863 9.20866 22.745 11.1249 22.745C12.8992 22.745 14.5848 22.5995 16.1817 22.3084C17.814 22.0173 19.3932 21.5542 20.9191 20.9191V15.9573L0 12.3053V3.09618C2.37757 1.98473 4.7374 1.19084 7.07949 0.714504C9.42157 0.238168 11.8169 0 14.2654 0C16.3236 0 18.3109 0.145548 20.2271 0.436643C22.1434 0.701273 23.9177 1.08499 25.55 1.58779V4.96183C23.9177 4.45903 22.1611 4.04886 20.2803 3.7313C18.3996 3.41374 16.5188 3.25496 14.638 3.25496C12.8282 3.25496 11.1072 3.40051 9.4748 3.6916C7.87792 3.9827 6.28105 4.4458 4.68417 5.08092V9.76489L25.55 13.4565V22.9038Z" fill="#00636A"/>
<path d="M52.472 25.4046L51.9929 22.9832C50.1476 24.0682 48.3556 24.8489 46.6167 25.3252C44.8779 25.7751 43.1391 26 41.4003 26C39.2711 26 37.3194 25.7618 35.5451 25.2855C33.7708 24.8092 32.0674 24.0153 30.4351 22.9038V7.74046C32.4933 6.68193 34.5692 5.90127 36.6629 5.39847C38.792 4.89568 41.0632 4.64428 43.4762 4.64428C45.8893 4.64428 48.1426 4.89568 50.2363 5.39847C52.3655 5.90127 54.4592 6.68193 56.5174 7.74046V25.4046H52.472ZM42.4649 22.7847C44.1327 22.7847 45.7473 22.573 47.3087 22.1496C48.8701 21.7262 50.3605 21.1043 51.78 20.284V9.84428C50.6089 9.20916 49.3492 8.73283 48.0007 8.41527C46.6522 8.09771 45.1441 7.93893 43.4762 7.93893C41.8084 7.93893 40.3002 8.09771 38.9517 8.41527C37.6387 8.73283 36.379 9.20916 35.1725 9.84428V20.8794C36.2725 21.5939 37.4081 22.0967 38.5791 22.3878C39.7502 22.6524 41.0454 22.7847 42.4649 22.7847Z" fill="#00636A"/>
<path d="M87.9971 5.2397L76.7657 25.4046H70.3782L59.0936 5.2397H64.2568L73.6252 22.5069L82.9935 5.2397H87.9971Z" fill="#00636A"/>
<path d="M103.029 4.64428C105.478 4.64428 107.731 4.90891 109.789 5.43817C111.883 5.94097 113.87 6.7084 115.751 7.74046V16.4336H94.9385V20.9191C96.3579 21.6071 97.8483 22.0967 99.4097 22.3878C100.971 22.6789 102.728 22.8244 104.679 22.8244C106.738 22.8244 108.654 22.6921 110.428 22.4275C112.202 22.1629 113.888 21.7791 115.485 21.2763V24.4916C113.853 24.9679 112.114 25.3384 110.268 25.6031C108.423 25.8677 106.454 26 104.36 26C102.621 26 100.918 25.8942 99.25 25.6824C97.6177 25.4707 96.0385 25.14 94.5126 24.6901C93.0222 24.2137 91.6205 23.6183 90.3075 22.9038V7.74046C92.3302 6.7084 94.353 5.94097 96.3757 5.43817C98.4339 4.90891 100.652 4.64428 103.029 4.64428ZM94.9385 9.72519V14.171H111.12V9.72519C109.914 9.09008 108.654 8.62697 107.341 8.33588C106.063 8.01832 104.626 7.85954 103.029 7.85954C101.468 7.85954 100.031 8.01832 98.7178 8.33588C97.4048 8.62697 96.145 9.09008 94.9385 9.72519Z" fill="#00636A"/>
<path d="M119.789 15.2824V7.74046C121.919 6.68193 124.101 5.90127 126.337 5.39847C128.572 4.89568 130.932 4.64428 133.416 4.64428C135.545 4.64428 137.55 4.78982 139.431 5.08092C141.347 5.34555 143.139 5.74249 144.807 6.27176V9.56641C143.068 9.01069 141.276 8.58728 139.431 8.29618C137.621 8.00509 135.652 7.85954 133.523 7.85954C131.677 7.85954 129.992 8.00509 128.466 8.29618C126.94 8.58728 125.538 9.03715 124.261 9.6458V13.2977L144.807 15.084V22.9038C142.714 23.9623 140.531 24.743 138.26 25.2458C135.989 25.7486 133.611 26 131.127 26C129.034 26 127.029 25.8545 125.112 25.5634C123.196 25.2987 121.422 24.9018 119.789 24.3725V21.0779C121.493 21.6336 123.232 22.0702 125.006 22.3878C126.816 22.6789 128.767 22.8244 130.861 22.8244C132.777 22.8244 134.516 22.6789 136.078 22.3878C137.639 22.0702 139.076 21.6204 140.389 21.0382V17.1084L119.789 15.2824Z" fill="#00636A"/>
<path d="M170 25.0473C169.077 25.3384 168.084 25.5634 167.019 25.7221C165.955 25.9074 164.837 26 163.666 26C161.395 26 159.336 25.7354 157.491 25.2061C155.646 24.6768 154.067 23.9094 152.754 22.9038V8.29618H147.697V5.63664L152.754 5.2397V0.595422H157.544V5.2397H169.627V8.29618H157.544V21.1573C158.29 21.713 159.212 22.1496 160.312 22.4672C161.412 22.7847 162.743 22.9435 164.304 22.9435C165.263 22.9435 166.185 22.8774 167.072 22.745C167.96 22.6127 168.935 22.3878 170 22.0702V25.0473Z" fill="#00636A"/>
</svg>
